# WaveFront *.obj file (generated by Autodesk ATF)

mtllib legs.mtl

g Body28

v -1.721431 0.685684 -3.662148
v -1.730722 0.689773 -3.658658
v -1.736322 0.698563 -3.656091
v -1.736454 0.709264 -3.655263
v -1.731075 0.718479 -3.656437
v -1.721894 0.723281 -3.659240
v -1.711824 0.722147 -3.662782
v -1.704065 0.715435 -3.665939
v -1.701078 0.705278 -3.667708
v -1.703812 0.694900 -3.667527
v -1.711400 0.687595 -3.665455
v -1.820639 0.706737 -3.948115
v -1.810151 0.707535 -3.947761
v -1.801616 0.713151 -3.947428
v -1.797322 0.722079 -3.947206
v -1.798419 0.731929 -3.947154
v -1.804613 0.740059 -3.947285
v -1.814245 0.744292 -3.947566
v -1.824734 0.743494 -3.947920
v -1.833268 0.737878 -3.948253
v -1.837563 0.728949 -3.948475
v -1.836466 0.719100 -3.948527
v -1.830271 0.710970 -3.948396
v -1.771796 0.696404 -3.808755
v -1.781093 0.700498 -3.805262
v -1.786687 0.709283 -3.802698
v -1.786818 0.719984 -3.801870
v -1.781439 0.729199 -3.803044
v -1.772258 0.734001 -3.805847
v -1.762189 0.732867 -3.809389
v -1.754429 0.726155 -3.812546
v -1.751442 0.715998 -3.814315
v -1.754177 0.705620 -3.814134
v -1.761764 0.698316 -3.812062
v -1.719591 0.731492 -4.176405
v -1.727456 0.729777 -4.182831
v -1.733799 0.723451 -4.187494
v -1.736920 0.714209 -4.189142
v -1.735983 0.704527 -4.187336
v -1.731240 0.697000 -4.182559
v -1.723961 0.693644 -4.176090
v -1.716096 0.695359 -4.169664
v -1.709754 0.701685 -4.165002
v -1.706632 0.710927 -4.163353
v -1.707569 0.720609 -4.165159
v -1.712312 0.728136 -4.169937
v -1.762714 0.736614 -4.059388
v -1.772528 0.737818 -4.063567
v -1.755176 0.729842 -4.055847
v -1.752306 0.719653 -4.054067
v -1.755016 0.709281 -4.054615
v -1.762446 0.702020 -4.057315
v -1.772236 0.700174 -4.061311
v -1.781284 0.704336 -4.065336
v -1.786702 0.713169 -4.068106
v -1.786785 0.723883 -4.068748
v -1.781501 0.733072 -4.067056
v -1.424670 0.657498 -4.367654
v -1.418828 0.659838 -4.358959
v -1.414115 0.667440 -4.353024
v -1.412029 0.677890 -4.351734
v -1.413230 0.687870 -4.355499
v -1.417339 0.694212 -4.363123
v -1.423049 0.694901 -4.372186
v -1.428549 0.689720 -4.379810
v -1.432092 0.680313 -4.383574
v -1.432553 0.669667 -4.382285
v -1.429786 0.661162 -4.376350
v -1.576858 0.675878 -4.270357
v -1.571016 0.678218 -4.261661
v -1.566304 0.685820 -4.255727
v -1.564217 0.696270 -4.254437
v -1.565419 0.706250 -4.258202
v -1.569527 0.712592 -4.265826
v -1.575238 0.713281 -4.274888
v -1.580738 0.708100 -4.282512
v -1.584281 0.698693 -4.286277
v -1.584742 0.688047 -4.284987
v -1.581975 0.679542 -4.279052
vt 30.341666 4.896601 0.000000
vt 30.341666 5.984734 0.000000
vt 14.802974 5.984734 0.000000
vt 14.802974 -5.984734 0.000000
vt 30.341666 -5.984734 0.000000
vt 30.341666 -4.896601 0.000000
vt 14.802974 -4.895728 0.000000
vt 30.341666 -3.808467 0.000000
vt 14.802974 -3.808467 0.000000
vt 14.802974 -2.720334 0.000000
vt -0.735718 -2.899966 0.000000
vt -0.637150 -1.902510 0.000000
vt 14.802974 -1.632200 0.000000
vt -0.367859 -0.905054 0.000000
vt 14.802974 -0.544067 0.000000
vt 0.000000 0.092401 0.000000
vt 14.802974 0.544067 0.000000
vt 0.367859 1.089857 0.000000
vt 14.802974 1.632200 0.000000
vt 0.637150 2.087313 0.000000
vt 14.802974 2.720334 0.000000
vt 0.735718 3.084768 0.000000
vt 14.802974 3.808467 0.000000
vt 0.637150 4.082224 0.000000
vt 14.802974 4.896601 0.000000
vt 0.367859 5.079680 0.000000
vt -0.000000 6.077135 0.000000
vt -0.000000 -5.892333 0.000000
vt -0.367859 -4.894877 0.000000
vt -0.637150 -3.897421 0.000000
vt 30.341666 -2.720334 0.000000
vt 30.341666 -1.632200 0.000000
vt 30.341666 -0.544067 0.000000
vt 30.341666 0.544067 0.000000
vt 30.341666 1.632200 0.000000
vt 30.341666 2.720334 0.000000
vt 30.341666 3.808467 0.000000
vt -0.123033 -1.901023 0.000000
vt 0.924269 -1.665759 0.000000
vt -1.131272 -1.532726 0.000000
vt 1.678122 -0.901628 0.000000
vt -1.780341 -0.677799 0.000000
vt 1.899183 0.148763 0.000000
vt -1.864164 0.392324 0.000000
vt 1.517267 1.151923 0.000000
vt -1.356128 1.337887 0.000000
vt 0.653629 1.789356 0.000000
vt -0.417531 1.858680 0.000000
vt 24.429201 1.089857 0.000000
vt 12.468916 0.544067 0.000000
vt 24.797060 0.092401 0.000000
vt 12.468916 -0.544067 0.000000
vt 25.164919 -0.905054 0.000000
vt 12.468916 -1.632200 0.000000
vt 25.434210 -1.902510 0.000000
vt 12.468916 -2.720334 0.000000
vt 25.532778 -2.899966 0.000000
vt 12.468916 -3.808467 0.000000
vt 25.434210 -3.897421 0.000000
vt 12.468916 -4.895736 0.000000
vt 25.164919 -4.894877 0.000000
vt 24.797060 -5.892333 0.000000
vt 12.468916 -5.984734 0.000000
vt 24.429201 -6.889788 0.000000
vt 24.429201 5.079680 0.000000
vt 12.468916 5.984734 0.000000
vt 12.468916 4.896601 0.000000
vt 24.159910 4.082224 0.000000
vt 12.468916 3.808467 0.000000
vt 24.061342 3.084768 0.000000
vt 12.468916 2.720334 0.000000
vt 24.159910 2.087313 0.000000
vt 12.468916 1.632200 0.000000
vt -0.297473 -1.016120 0.000000
vt 0.000000 -0.018665 0.000000
vt 0.297473 0.978791 0.000000
vt 0.515238 1.976247 0.000000
vt 0.594946 2.973702 0.000000
vt 0.515238 3.971158 0.000000
vt 0.297473 4.968614 0.000000
vt 0.000000 5.966069 0.000000
vt -0.297473 6.963525 0.000000
vt -0.297473 -5.005943 0.000000
vt -0.515238 -4.008487 0.000000
vt -0.594946 -3.011032 0.000000
vt -0.515238 -2.013576 0.000000
vt 0.000000 4.896601 0.000000
vt 18.156548 4.896601 0.000000
vt -0.000000 5.984734 0.000000
vt 18.156548 5.984734 0.000000
vt -0.000000 -5.984734 0.000000
vt 18.156548 -5.984734 0.000000
vt -0.000000 -4.896601 0.000000
vt 18.156548 -4.896601 0.000000
vt -0.000000 -3.808467 0.000000
vt 18.156548 -3.808467 0.000000
vt 0.000000 -2.720334 0.000000
vt 18.156548 -2.720334 0.000000
vt 0.000000 -1.632200 0.000000
vt 18.156548 -1.632200 0.000000
vt 0.000000 -0.544067 0.000000
vt 18.156548 -0.544067 0.000000
vt 0.000000 0.544067 0.000000
vt 18.156548 0.544067 0.000000
vt 0.000000 1.632200 0.000000
vt 18.156548 1.632200 0.000000
vt -0.000000 2.720334 0.000000
vt 18.156548 2.720334 0.000000
vt 0.000000 3.808467 0.000000
vt 18.156548 3.808467 0.000000
vt 35.420677 4.968614 0.000000
vt 35.718150 5.966069 0.000000
vt 35.718150 -6.003399 0.000000
vt 36.015623 -5.005943 0.000000
vt 36.233388 -4.008487 0.000000
vt 36.313096 -3.011032 0.000000
vt 36.233388 -2.013576 0.000000
vt 36.015623 -1.016120 0.000000
vt 35.718150 -0.018665 0.000000
vt 35.420677 0.978791 0.000000
vt 35.202911 1.976247 0.000000
vt 35.123204 2.973702 0.000000
vt 35.202911 3.971158 0.000000
vt 0.123033 -1.901023 0.000000
vt 1.131272 -1.532726 0.000000
vt -0.924269 -1.665759 0.000000
vt -1.678122 -0.901628 0.000000
vt 1.780341 -0.677799 0.000000
vt -1.899183 0.148763 0.000000
vt 1.864164 0.392324 0.000000
vt -1.517267 1.151923 0.000000
vt 1.356128 1.337887 0.000000
vt -0.653629 1.789356 0.000000
vt 0.417531 1.858680 0.000000
vn 40.410304 -89.166986 -20.402350
vn -12.249079 -99.200220 -3.045709
vn -12.249079 -99.200220 -3.045709
vn -61.019466 -77.738085 15.277923
vn -61.052556 -77.709453 15.291384
vn -90.416603 -31.594657 28.750922
vn -90.416603 -31.594657 28.750922
vn -91.107108 24.579851 33.095707
vn -93.100903 15.367131 33.106994
vn -72.236309 62.593859 29.392593
vn -62.871750 72.950430 26.932839
vn -32.016054 93.048613 17.802471
vn -14.675055 98.159764 12.218984
vn 16.782877 98.571066 1.442191
vn 38.180866 92.204065 -6.374311
vn 61.084850 77.681482 -15.304524
vn 78.914631 56.974228 -22.943808
vn 89.019186 35.977208 -27.950403
vn 94.593559 3.655475 -32.228808
vn 93.100903 -15.367131 -33.106994
vn 80.239700 -50.823864 -31.281389
vn 72.236309 -62.593859 -29.392593
vn 40.410304 -89.166986 -20.402350
vn 32.016054 -93.048613 -17.802471
vn -16.782877 -98.571066 -1.442191
vn -61.084850 -77.681482 15.304524
vn -89.019186 -35.977208 27.950403
vn -91.107108 24.579851 33.095707
vn -62.871750 72.950430 26.932839
vn -14.675055 98.159764 12.218984
vn 38.180866 92.204065 -6.374311
vn 78.914631 56.974228 -22.943808
vn 94.593559 3.655475 -32.228808
vn 80.239700 -50.823864 -31.281389
vn 32.412294 -6.898999 94.349600
vn 32.412294 -6.898999 94.349600
vn 32.412294 -6.898999 94.349600
vn 32.412294 -6.898999 94.349600
vn 32.412294 -6.898999 94.349600
vn 32.412294 -6.898999 94.349600
vn 32.412294 -6.898999 94.349600
vn 32.412294 -6.898999 94.349600
vn 32.412294 -6.898999 94.349600
vn 32.412294 -6.898999 94.349600
vn 32.412294 -6.898999 94.349600
vn 59.893928 77.357451 20.701259
vn 37.621420 92.051849 10.539732
vn -13.893994 98.372278 -11.395254
vn -30.825132 93.372644 -18.203312
vn -60.998163 73.460204 -29.712328
vn -70.173572 63.155097 -32.971251
vn -88.735846 25.225035 -38.595948
vn -90.719061 16.015193 -38.904571
vn -88.300525 -31.018905 -35.225627
vn -86.956450 -35.415969 -34.413442
vn -59.862293 -77.385909 -20.686396
vn -59.893928 -77.357451 -20.701259
vn -12.364564 -99.231642 0.445820
vn 30.825132 -93.372644 18.203312
vn 39.026944 -89.543377 21.421513
vn 70.173572 -63.155097 32.971251
vn 78.027674 -51.425723 35.596028
vn 90.719061 -16.015193 38.904571
vn 92.255168 3.019235 38.469055
vn 86.956450 35.415969 34.413442
vn 77.192299 56.505608 29.128429
vn -35.839662 91.150325 -20.177635
vn 11.468211 99.336780 -0.827208
vn 55.703186 80.906025 18.744869
vn 85.012538 40.796566 33.294273
vn 91.542848 -10.244299 38.922503
vn 73.544326 -58.540214 34.121481
vn 35.839662 -91.150325 20.177635
vn -11.468211 -99.336780 0.827208
vn -55.703186 -80.906025 -18.744869
vn -85.012538 -40.796566 -33.294273
vn -91.542848 10.244299 -38.922503
vn -73.544326 58.540214 -34.121481
vn 18.676252 -86.992210 45.645952
vn 18.676252 -86.992210 45.645952
vn -11.990036 -99.278593 0.000000
vn -11.990036 -99.278593 0.000000
vn -38.849572 -80.044724 -45.645952
vn -38.849572 -80.044724 -45.645952
vn -53.374643 -35.397220 -76.799637
vn -53.374643 -35.397220 -76.799637
vn -50.953642 20.488650 -83.569980
vn -50.953642 20.488650 -83.569980
vn -32.355220 69.869519 -63.807444
vn -32.355220 69.869519 -63.807444
vn -3.484244 97.067310 -23.786496
vn -3.484244 97.067310 -23.786496
vn 26.492955 93.446915 23.786496
vn 26.492955 93.446915 23.786496
vn 48.058828 60.157785 63.807444
vn 48.058828 60.157785 63.807444
vn 54.366362 7.768983 83.569980
vn 54.366362 7.768983 83.569980
vn 43.412961 -47.086416 76.799637
vn 43.412961 -47.086416 76.799637
vn 16.726456 -88.754290 42.929031
vn -36.589981 -83.302060 -41.496265
vn -51.907495 -44.946621 -72.700847
vn -53.316438 5.452229 -84.425296
vn -40.439284 54.390159 -73.528055
vn -16.726456 88.754290 -42.929031
vn 36.589981 83.302060 41.496265
vn 51.907495 44.946621 72.700847
vn 53.316438 -5.452229 84.425296
vn 40.439284 -54.390159 73.528055
vn 83.820270 -10.123109 -53.588105
vn 83.820270 -10.123109 -53.588105
vn 83.820270 -10.123109 -53.588105
vn 83.820270 -10.123109 -53.588105
vn 83.820270 -10.123109 -53.588105
vn 83.820270 -10.123109 -53.588105
vn 83.820270 -10.123109 -53.588105
vn 83.820270 -10.123109 -53.588105
vn 83.820270 -10.123109 -53.588105
vn 83.820270 -10.123109 -53.588105
vn 83.820270 -10.123109 -53.588105
usemtl Steel_-_Satin
f 11/1/1 1/2/2 24/3/3
f 24/4/3 1/5/2 2/6/4
f 24/4/3 2/6/4 25/7/5
f 25/7/5 2/6/4 3/8/6
f 25/7/5 3/8/6 26/9/7
f 26/9/7 3/8/6 27/10/8
f 26/9/7 27/10/8 21/11/9
f 21/11/9 27/10/8 20/12/10
f 20/12/10 27/10/8 28/13/11
f 20/12/10 28/13/11 19/14/12
f 19/14/12 28/13/11 29/15/13
f 19/14/12 29/15/13 18/16/14
f 18/16/14 29/15/13 30/17/15
f 18/16/14 30/17/15 17/18/16
f 17/18/16 30/17/15 31/19/17
f 17/18/16 31/19/17 16/20/18
f 16/20/18 31/19/17 32/21/19
f 16/20/18 32/21/19 15/22/20
f 15/22/20 32/21/19 33/23/21
f 15/22/20 33/23/21 14/24/22
f 14/24/22 33/23/21 34/25/23
f 14/24/22 34/25/23 13/26/24
f 13/26/24 34/25/23 24/3/3
f 13/26/24 24/3/3 12/27/25
f 12/28/25 24/4/3 25/7/5
f 12/28/25 25/7/5 23/29/26
f 23/29/26 25/7/5 22/30/27
f 22/30/27 25/7/5 26/9/7
f 22/30/27 26/9/7 21/11/9
f 3/8/6 4/31/28 27/10/8
f 27/10/8 4/31/28 28/13/11
f 4/31/28 5/32/29 28/13/11
f 28/13/11 5/32/29 29/15/13
f 5/32/29 6/33/30 29/15/13
f 29/15/13 6/33/30 30/17/15
f 6/33/30 7/34/31 30/17/15
f 30/17/15 7/34/31 31/19/17
f 7/34/31 8/35/32 31/19/17
f 31/19/17 8/35/32 32/21/19
f 8/35/32 9/36/33 32/21/19
f 32/21/19 9/36/33 33/23/21
f 9/36/33 10/37/34 33/23/21
f 33/23/21 10/37/34 34/25/23
f 10/37/34 11/1/1 34/25/23
f 34/25/23 11/1/1 24/3/3
f 1/38/35 11/39/36 2/40/37
f 2/40/37 11/39/36 10/41/38
f 2/40/37 10/41/38 3/42/39
f 3/42/39 10/41/38 9/43/40
f 3/42/39 9/43/40 4/44/41
f 4/44/41 9/43/40 8/45/42
f 4/44/41 8/45/42 5/46/43
f 5/46/43 8/45/42 7/47/44
f 5/46/43 7/47/44 6/48/45
f 17/49/46 47/50/47 18/51/14
f 18/51/14 47/50/47 48/52/48
f 18/51/14 48/52/48 19/53/49
f 19/53/49 48/52/48 57/54/50
f 19/53/49 57/54/50 20/55/51
f 20/55/51 57/54/50 56/56/52
f 20/55/51 56/56/52 21/57/53
f 21/57/53 56/56/52 55/58/54
f 21/57/53 55/58/54 22/59/55
f 22/59/55 55/58/54 54/60/56
f 22/59/55 54/60/56 23/61/57
f 23/61/57 54/60/56 12/62/25
f 12/62/25 54/60/56 53/63/58
f 12/62/25 53/63/58 13/64/59
f 13/65/59 53/66/58 52/67/60
f 13/65/59 52/67/60 14/68/61
f 14/68/61 52/67/60 51/69/62
f 14/68/61 51/69/62 15/70/63
f 15/70/63 51/69/62 50/71/64
f 15/70/63 50/71/64 16/72/65
f 16/72/65 50/71/64 49/73/66
f 16/72/65 49/73/66 17/49/46
f 17/49/46 49/73/66 47/50/47
f 36/74/67 48/52/48 35/75/68
f 35/75/68 48/52/48 47/50/47
f 35/75/68 47/50/47 46/76/69
f 46/76/69 47/50/47 49/73/66
f 46/76/69 49/73/66 45/77/70
f 45/77/70 49/73/66 50/71/64
f 45/77/70 50/71/64 44/78/71
f 44/78/71 50/71/64 51/69/62
f 44/78/71 51/69/62 43/79/72
f 43/79/72 51/69/62 52/67/60
f 43/79/72 52/67/60 42/80/73
f 42/80/73 52/67/60 53/66/58
f 42/80/73 53/66/58 41/81/74
f 41/81/74 53/66/58 40/82/75
f 40/83/75 53/63/58 54/60/56
f 40/83/75 54/60/56 39/84/76
f 39/84/76 54/60/56 55/58/54
f 39/84/76 55/58/54 38/85/77
f 38/85/77 55/58/54 56/56/52
f 38/85/77 56/56/52 37/86/78
f 37/86/78 56/56/52 57/54/50
f 37/86/78 57/54/50 36/74/67
f 36/74/67 57/54/50 48/52/48
f 59/87/79 70/88/80 58/89/81
f 58/89/81 70/88/80 69/90/82
f 58/91/81 69/92/82 68/93/83
f 68/93/83 69/92/82 79/94/84
f 68/93/83 79/94/84 67/95/85
f 67/95/85 79/94/84 78/96/86
f 67/95/85 78/96/86 66/97/87
f 66/97/87 78/96/86 77/98/88
f 66/97/87 77/98/88 65/99/89
f 65/99/89 77/98/88 76/100/90
f 65/99/89 76/100/90 64/101/91
f 64/101/91 76/100/90 75/102/92
f 64/101/91 75/102/92 63/103/93
f 63/103/93 75/102/92 74/104/94
f 63/103/93 74/104/94 62/105/95
f 62/105/95 74/104/94 73/106/96
f 62/105/95 73/106/96 61/107/97
f 61/107/97 73/106/96 72/108/98
f 61/107/97 72/108/98 60/109/99
f 60/109/99 72/108/98 71/110/100
f 60/109/99 71/110/100 59/87/79
f 59/87/79 71/110/100 70/88/80
f 42/111/101 41/112/74 69/90/82
f 69/92/82 41/113/74 40/114/102
f 69/92/82 40/114/102 79/94/84
f 79/94/84 40/114/102 39/115/103
f 79/94/84 39/115/103 78/96/86
f 78/96/86 39/115/103 38/116/104
f 78/96/86 38/116/104 77/98/88
f 77/98/88 38/116/104 37/117/105
f 77/98/88 37/117/105 76/100/90
f 76/100/90 37/117/105 36/118/106
f 76/100/90 36/118/106 75/102/92
f 75/102/92 36/118/106 35/119/68
f 75/102/92 35/119/68 74/104/94
f 74/104/94 35/119/68 46/120/107
f 74/104/94 46/120/107 73/106/96
f 73/106/96 46/120/107 45/121/108
f 73/106/96 45/121/108 72/108/98
f 72/108/98 45/121/108 44/122/109
f 72/108/98 44/122/109 71/110/100
f 71/110/100 44/122/109 43/123/110
f 71/110/100 43/123/110 70/88/80
f 70/88/80 43/123/110 42/111/101
f 70/88/80 42/111/101 69/90/82
f 58/124/111 68/125/112 59/126/113
f 59/126/113 68/125/112 60/127/114
f 60/127/114 68/125/112 67/128/115
f 60/127/114 67/128/115 61/129/116
f 61/129/116 67/128/115 66/130/117
f 61/129/116 66/130/117 62/131/118
f 62/131/118 66/130/117 65/132/119
f 62/131/118 65/132/119 63/133/120
f 63/133/120 65/132/119 64/134/121
# 79 vertices
# 134 texture params
# 121 normals
# 154 facets

# 1 groups
