# WaveFront *.obj file (generated by Autodesk ATF)

mtllib fire_pit.mtl

g Body1

v -0.261821 -0.508000 -0.453488
v 0.000000 -0.054512 -0.000000
v 0.261821 -0.508000 -0.453488
v 0.523643 -0.508000 0.000000
v 0.261821 -0.508000 0.453488
v -0.261821 -0.508000 0.453488
v -0.523643 -0.508000 0.000000
vt 0.000000 0.000000 0.000000
vt -26.182138 64.132877 0.000000
vt -52.364275 -0.000000 0.000000
vt 0.000000 0.000000 0.000000
vt -26.182138 64.132877 0.000000
vt -52.364275 -0.000000 0.000000
vt 0.000000 0.000000 0.000000
vt -26.182138 64.132877 0.000000
vt -52.364275 0.000000 0.000000
vt 0.000000 0.000000 0.000000
vt -26.182138 64.132877 0.000000
vt -52.364275 0.000000 0.000000
vt 0.000000 0.000000 0.000000
vt -26.182138 64.132877 0.000000
vt -52.364275 0.000000 0.000000
vt 0.000000 0.000000 0.000000
vt -26.182138 64.132877 0.000000
vt -52.364275 0.000000 0.000000
vt 26.182138 45.348793 0.000000
vt -26.182138 45.348793 0.000000
vt 52.364275 0.000000 0.000000
vt -52.364275 -0.000000 0.000000
vt 26.182138 -45.348793 0.000000
vt -26.182138 -45.348793 0.000000
vn 0.000000 70.710678 -70.710678
vn 0.000000 70.710678 -70.710678
vn 0.000000 70.710678 -70.710678
vn 61.237244 70.710678 -35.355339
vn 61.237244 70.710678 -35.355339
vn 61.237244 70.710678 -35.355339
vn 61.237244 70.710678 35.355339
vn 61.237244 70.710678 35.355339
vn 61.237244 70.710678 35.355339
vn -0.000000 70.710678 70.710678
vn -0.000000 70.710678 70.710678
vn -0.000000 70.710678 70.710678
vn -61.237244 70.710678 35.355339
vn -61.237244 70.710678 35.355339
vn -61.237244 70.710678 35.355339
vn -61.237244 70.710678 -35.355339
vn -61.237244 70.710678 -35.355339
vn -61.237244 70.710678 -35.355339
vn 0.000000 -100.000000 0.000000
vn 0.000000 -100.000000 0.000000
vn 0.000000 -100.000000 0.000000
vn 0.000000 -100.000000 0.000000
vn 0.000000 -100.000000 0.000000
vn 0.000000 -100.000000 0.000000
usemtl Steel_-_Satin
f 1/1/1 2/2/2 3/3/3
f 3/4/4 2/5/5 4/6/6
f 4/7/7 2/8/8 5/9/9
f 5/10/10 2/11/11 6/12/12
f 6/13/13 2/14/14 7/15/15
f 7/16/16 2/17/17 1/18/18
f 1/19/19 3/20/20 7/21/21
f 7/21/21 3/20/20 4/22/22
f 7/21/21 4/22/22 6/23/23
f 6/23/23 4/22/22 5/24/24
# 7 vertices
# 24 texture params
# 24 normals
# 10 facets

# 1 groups
